REM DIRINDEX 1\2\5,1\2\6,1\2\7,1\2\8,1\3\9,1\3\10,1\3\11,1\4\12,1\4\13,1\4\14,1\4\15,1\4\16
REM DIRNAME cjc034,folder01,folder02,folder03,folder04,folder05,folder06,folder07,folder08,folder09,folder10,folder11,folder12,folder13,folder14,folder15
TITLE ""
FILE "1200_sec05_1641_1650.mp3" MP3
  TRACK 01 AUDIO
    TITLE "0:"
    INDEX 01 00:00:00
  TRACK 02 AUDIO
    TITLE "16:cjc034_10313"
    INDEX 01 00:03:19
  TRACK 03 AUDIO
    TITLE "0:"
    INDEX 01 00:04:40
  TRACK 04 AUDIO
    TITLE "16:cjc034_10314"
    INDEX 01 00:05:14
  TRACK 05 AUDIO
    TITLE "0:"
    INDEX 01 00:07:54
  TRACK 06 AUDIO
    TITLE "12:cjc034_10315"
    INDEX 01 00:08:56
  TRACK 07 AUDIO
    TITLE "0:"
    INDEX 01 00:10:27
  TRACK 08 AUDIO
    TITLE "13:cjc034_10316"
    INDEX 01 00:10:59
  TRACK 09 AUDIO
    TITLE "0:"
    INDEX 01 00:13:39
  TRACK 10 AUDIO
    TITLE "14:cjc034_10317"
    INDEX 01 00:13:73
  TRACK 11 AUDIO
    TITLE "0:"
    INDEX 01 00:15:44
  TRACK 12 AUDIO
    TITLE "15:cjc034_10318"
    INDEX 01 00:16:02
  TRACK 13 AUDIO
    TITLE "0:"
    INDEX 01 00:20:59
  TRACK 14 AUDIO
    TITLE "12:cjc034_10319"
    INDEX 01 00:22:17
  TRACK 15 AUDIO
    TITLE "0:"
    INDEX 01 00:26:38
  TRACK 16 AUDIO
    TITLE "13:cjc034_10320"
    INDEX 01 00:26:69
  TRACK 17 AUDIO
    TITLE "0:"
    INDEX 01 00:28:37
  TRACK 18 AUDIO
    TITLE "14:cjc034_10321"
    INDEX 01 00:28:68
  TRACK 19 AUDIO
    TITLE "0:"
    INDEX 01 00:33:13
  TRACK 20 AUDIO
    TITLE "15:cjc034_10322"
    INDEX 01 00:33:46
  TRACK 21 AUDIO
    TITLE "0:"
    INDEX 01 00:37:54
  TRACK 22 AUDIO
    TITLE "12:cjc034_10323"
    INDEX 01 00:39:15
  TRACK 23 AUDIO
    TITLE "0:"
    INDEX 01 00:40:66
  TRACK 24 AUDIO
    TITLE "13:cjc034_10324"
    INDEX 01 00:41:26
  TRACK 25 AUDIO
    TITLE "0:"
    INDEX 01 00:44:07
  TRACK 26 AUDIO
    TITLE "14:cjc034_10325"
    INDEX 01 00:44:42
  TRACK 27 AUDIO
    TITLE "0:"
    INDEX 01 00:46:21
  TRACK 28 AUDIO
    TITLE "15:cjc034_10326"
    INDEX 01 00:46:53
  TRACK 29 AUDIO
    TITLE "0:"
    INDEX 01 00:50:25
  TRACK 30 AUDIO
    TITLE "12:cjc034_10327"
    INDEX 01 00:51:62
  TRACK 31 AUDIO
    TITLE "0:"
    INDEX 01 00:54:15
  TRACK 32 AUDIO
    TITLE "13:cjc034_10328"
    INDEX 01 00:54:54
  TRACK 33 AUDIO
    TITLE "0:"
    INDEX 01 00:56:08
  TRACK 34 AUDIO
    TITLE "14:cjc034_10329"
    INDEX 01 00:56:45
  TRACK 35 AUDIO
    TITLE "0:"
    INDEX 01 00:58:73
  TRACK 36 AUDIO
    TITLE "15:cjc034_10330"
    INDEX 01 00:59:38
  TRACK 37 AUDIO
    TITLE "0:"
    INDEX 01 01:03:29
  TRACK 38 AUDIO
    TITLE "12:cjc034_10331"
    INDEX 01 01:04:62
  TRACK 39 AUDIO
    TITLE "0:"
    INDEX 01 01:06:16
  TRACK 40 AUDIO
    TITLE "13:cjc034_10332"
    INDEX 01 01:06:49
  TRACK 41 AUDIO
    TITLE "0:"
    INDEX 01 01:11:47
  TRACK 42 AUDIO
    TITLE "14:cjc034_10333"
    INDEX 01 01:12:07
  TRACK 43 AUDIO
    TITLE "0:"
    INDEX 01 01:13:32
  TRACK 44 AUDIO
    TITLE "15:cjc034_10334"
    INDEX 01 01:13:67
  TRACK 45 AUDIO
    TITLE "0:"
    INDEX 01 01:18:02
  TRACK 46 AUDIO
    TITLE "12:cjc034_10335"
    INDEX 01 01:19:38
  TRACK 47 AUDIO
    TITLE "0:"
    INDEX 01 01:20:67
  TRACK 48 AUDIO
    TITLE "13:cjc034_10336"
    INDEX 01 01:21:23
  TRACK 49 AUDIO
    TITLE "0:"
    INDEX 01 01:26:19
  TRACK 50 AUDIO
    TITLE "14:cjc034_10337"
    INDEX 01 01:26:56
  TRACK 51 AUDIO
    TITLE "0:"
    INDEX 01 01:28:08
  TRACK 52 AUDIO
    TITLE "15:cjc034_10338"
    INDEX 01 01:28:39
  TRACK 53 AUDIO
    TITLE "0:"
    INDEX 01 01:32:39
  TRACK 54 AUDIO
    TITLE "12:cjc034_10339"
    INDEX 01 01:33:72
  TRACK 55 AUDIO
    TITLE "0:"
    INDEX 01 01:35:35
  TRACK 56 AUDIO
    TITLE "13:cjc034_10340"
    INDEX 01 01:35:67
  TRACK 57 AUDIO
    TITLE "0:"
    INDEX 01 01:37:38
  TRACK 58 AUDIO
    TITLE "14:cjc034_10341"
    INDEX 01 01:37:69
  TRACK 59 AUDIO
    TITLE "0:"
    INDEX 01 01:39:33
  TRACK 60 AUDIO
    TITLE "15:cjc034_10342"
    INDEX 01 01:39:66
  TRACK 61 AUDIO
    TITLE "0:"
    INDEX 01 01:44:36
  TRACK 62 AUDIO
    TITLE "12:cjc034_10343"
    INDEX 01 01:45:69
  TRACK 63 AUDIO
    TITLE "0:"
    INDEX 01 01:47:15
  TRACK 64 AUDIO
    TITLE "13:cjc034_10344"
    INDEX 01 01:47:48
  TRACK 65 AUDIO
    TITLE "0:"
    INDEX 01 01:51:32
  TRACK 66 AUDIO
    TITLE "14:cjc034_10345"
    INDEX 01 01:51:64
  TRACK 67 AUDIO
    TITLE "0:"
    INDEX 01 01:53:08
  TRACK 68 AUDIO
    TITLE "15:cjc034_10346"
    INDEX 01 01:53:43
  TRACK 69 AUDIO
    TITLE "0:"
    INDEX 01 01:57:72
  TRACK 70 AUDIO
    TITLE "12:cjc034_10347"
    INDEX 01 01:59:30
  TRACK 71 AUDIO
    TITLE "0:"
    INDEX 01 02:01:64
  TRACK 72 AUDIO
    TITLE "13:cjc034_10348"
    INDEX 01 02:02:28
  TRACK 73 AUDIO
    TITLE "0:"
    INDEX 01 02:04:55
  TRACK 74 AUDIO
    TITLE "14:cjc034_10349"
    INDEX 01 02:05:15
  TRACK 75 AUDIO
    TITLE "0:"
    INDEX 01 02:07:53
  TRACK 76 AUDIO
    TITLE "15:cjc034_10350"
    INDEX 01 02:08:11
  TRACK 77 AUDIO
    TITLE "0:"
    INDEX 01 02:11:66
  TRACK 78 AUDIO
    TITLE "12:cjc034_10351"
    INDEX 01 02:13:22
  TRACK 79 AUDIO
    TITLE "0:"
    INDEX 01 02:14:49
  TRACK 80 AUDIO
    TITLE "13:cjc034_10352"
    INDEX 01 02:15:11
  TRACK 81 AUDIO
    TITLE "0:"
    INDEX 01 02:17:47
  TRACK 82 AUDIO
    TITLE "14:cjc034_10353"
    INDEX 01 02:18:04
  TRACK 83 AUDIO
    TITLE "0:"
    INDEX 01 02:19:29
  TRACK 84 AUDIO
    TITLE "15:cjc034_10354"
    INDEX 01 02:19:70
  TRACK 85 AUDIO
    TITLE "0:"
    INDEX 01 02:25:47
